<mxfile host="app.diagrams.net" agent="Mozilla/5.0 (Windows NT 10.0; Win64; x64) AppleWebKit/537.36 (KHTML, like Gecko) Chrome/136.0.0.0 Safari/537.36" version="27.0.5">
  <diagram name="PÃ¡gina-1" id="npI__E2iPq3nfUKhyoLV">
    <mxGraphModel dx="3691" dy="1110" grid="1" gridSize="10" guides="1" tooltips="1" connect="1" arrows="1" fold="1" page="1" pageScale="1" pageWidth="827" pageHeight="1169" math="0" shadow="0">
      <root>
        <mxCell id="0" />
        <mxCell id="1" parent="0" />
        <mxCell id="NXqMpHXRE2b2beQ41x6s-4" value="" style="verticalAlign=top;align=left;spacingTop=8;spacingLeft=2;spacingRight=12;shape=cube;size=10;direction=south;fontStyle=4;html=1;whiteSpace=wrap;" vertex="1" parent="1">
          <mxGeometry x="-1130" y="20" width="2262" height="780" as="geometry" />
        </mxCell>
        <mxCell id="NXqMpHXRE2b2beQ41x6s-2" value="" style="verticalAlign=top;align=left;spacingTop=8;spacingLeft=2;spacingRight=12;shape=cube;size=10;direction=south;fontStyle=4;html=1;whiteSpace=wrap;" vertex="1" parent="1">
          <mxGeometry x="-25" y="190" width="460" height="260" as="geometry" />
        </mxCell>
        <mxCell id="NXqMpHXRE2b2beQ41x6s-3" value="Entorno de desarrollo Node.js" style="text;strokeColor=none;align=center;fillColor=none;html=1;verticalAlign=middle;whiteSpace=wrap;rounded=0;" vertex="1" parent="1">
          <mxGeometry x="-20" y="190" width="180" height="40" as="geometry" />
        </mxCell>
        <mxCell id="NXqMpHXRE2b2beQ41x6s-5" value="&lt;font style=&quot;font-size: 24px;&quot;&gt;DentiSoftware&lt;/font&gt;" style="text;strokeColor=none;align=center;fillColor=none;html=1;verticalAlign=middle;whiteSpace=wrap;rounded=0;" vertex="1" parent="1">
          <mxGeometry x="-70" y="50" width="110" height="20" as="geometry" />
        </mxCell>
        <mxCell id="NXqMpHXRE2b2beQ41x6s-25" style="edgeStyle=orthogonalEdgeStyle;rounded=0;orthogonalLoop=1;jettySize=auto;html=1;exitX=0;exitY=0;exitDx=95;exitDy=0;exitPerimeter=0;" edge="1" parent="1" source="NXqMpHXRE2b2beQ41x6s-7" target="NXqMpHXRE2b2beQ41x6s-24">
          <mxGeometry relative="1" as="geometry" />
        </mxCell>
        <mxCell id="NXqMpHXRE2b2beQ41x6s-7" value="Servidor API/ BACKEND" style="verticalAlign=top;align=left;spacingTop=8;spacingLeft=2;spacingRight=12;shape=cube;size=10;direction=south;fontStyle=4;html=1;whiteSpace=wrap;" vertex="1" parent="1">
          <mxGeometry y="230" width="410" height="200" as="geometry" />
        </mxCell>
        <mxCell id="NXqMpHXRE2b2beQ41x6s-10" value="MVC" style="verticalAlign=top;align=left;spacingTop=8;spacingLeft=2;spacingRight=12;shape=cube;size=10;direction=south;fontStyle=4;html=1;whiteSpace=wrap;" vertex="1" parent="1">
          <mxGeometry x="30" y="270" width="350" height="140" as="geometry" />
        </mxCell>
        <mxCell id="NXqMpHXRE2b2beQ41x6s-8" value="&lt;font style=&quot;font-size: 24px;&quot;&gt;Modelo&lt;/font&gt;" style="verticalAlign=top;align=left;spacingTop=8;spacingLeft=2;spacingRight=12;shape=cube;size=10;direction=south;fontStyle=4;html=1;whiteSpace=wrap;" vertex="1" parent="1">
          <mxGeometry x="60" y="315" width="100" height="50" as="geometry" />
        </mxCell>
        <mxCell id="NXqMpHXRE2b2beQ41x6s-9" value="&lt;font style=&quot;font-size: 24px;&quot;&gt;Controlador&lt;/font&gt;" style="verticalAlign=top;align=left;spacingTop=8;spacingLeft=2;spacingRight=12;shape=cube;size=10;direction=south;fontStyle=4;html=1;whiteSpace=wrap;" vertex="1" parent="1">
          <mxGeometry x="210" y="315" width="140" height="45" as="geometry" />
        </mxCell>
        <mxCell id="NXqMpHXRE2b2beQ41x6s-14" value="&lt;font style=&quot;font-size: 24px;&quot;&gt;PETICION HTTP&lt;/font&gt;" style="verticalAlign=top;align=left;spacingTop=8;spacingLeft=2;spacingRight=12;shape=cube;size=10;direction=south;fontStyle=4;html=1;whiteSpace=wrap;" vertex="1" parent="1">
          <mxGeometry x="330" y="530" width="130" height="90" as="geometry" />
        </mxCell>
        <mxCell id="NXqMpHXRE2b2beQ41x6s-15" style="edgeStyle=orthogonalEdgeStyle;rounded=0;orthogonalLoop=1;jettySize=auto;html=1;exitX=0;exitY=0;exitDx=0;exitDy=60;exitPerimeter=0;entryX=0;entryY=0;entryDx=17.5;entryDy=0;entryPerimeter=0;" edge="1" parent="1" source="NXqMpHXRE2b2beQ41x6s-14" target="NXqMpHXRE2b2beQ41x6s-9">
          <mxGeometry relative="1" as="geometry">
            <Array as="points">
              <mxPoint x="390" y="530" />
              <mxPoint x="390" y="332" />
            </Array>
          </mxGeometry>
        </mxCell>
        <mxCell id="NXqMpHXRE2b2beQ41x6s-17" value="POST, PUT DELETE, GET" style="text;strokeColor=none;align=center;fillColor=none;html=1;verticalAlign=middle;whiteSpace=wrap;rounded=0;" vertex="1" parent="1">
          <mxGeometry x="384" y="470" width="96" height="50" as="geometry" />
        </mxCell>
        <mxCell id="NXqMpHXRE2b2beQ41x6s-18" value="&lt;font style=&quot;font-size: 24px;&quot;&gt;CLIENTE&lt;/font&gt;&lt;div&gt;&lt;span style=&quot;font-size: 24px;&quot;&gt;(WEB, MOVIl)&lt;/span&gt;&lt;/div&gt;" style="verticalAlign=top;align=left;spacingTop=8;spacingLeft=2;spacingRight=12;shape=cube;size=10;direction=south;fontStyle=4;html=1;whiteSpace=wrap;" vertex="1" parent="1">
          <mxGeometry x="740" y="220" width="170" height="90" as="geometry" />
        </mxCell>
        <mxCell id="NXqMpHXRE2b2beQ41x6s-40" style="edgeStyle=orthogonalEdgeStyle;rounded=0;orthogonalLoop=1;jettySize=auto;html=1;exitX=0;exitY=0;exitDx=0;exitDy=75;exitPerimeter=0;" edge="1" parent="1" source="NXqMpHXRE2b2beQ41x6s-20" target="NXqMpHXRE2b2beQ41x6s-18">
          <mxGeometry relative="1" as="geometry" />
        </mxCell>
        <mxCell id="NXqMpHXRE2b2beQ41x6s-20" value="AUTENTICACION JWT" style="verticalAlign=top;align=left;spacingTop=8;spacingLeft=2;spacingRight=12;shape=cube;size=10;direction=south;fontStyle=4;html=1;whiteSpace=wrap;" vertex="1" parent="1">
          <mxGeometry x="710" y="450" width="160" height="60" as="geometry" />
        </mxCell>
        <mxCell id="NXqMpHXRE2b2beQ41x6s-22" style="edgeStyle=orthogonalEdgeStyle;rounded=0;orthogonalLoop=1;jettySize=auto;html=1;exitX=0;exitY=0;exitDx=60;exitDy=85;exitPerimeter=0;entryX=0;entryY=0;entryDx=40;entryDy=0;entryPerimeter=0;" edge="1" parent="1" source="NXqMpHXRE2b2beQ41x6s-20" target="NXqMpHXRE2b2beQ41x6s-14">
          <mxGeometry relative="1" as="geometry" />
        </mxCell>
        <mxCell id="NXqMpHXRE2b2beQ41x6s-26" style="edgeStyle=orthogonalEdgeStyle;rounded=0;orthogonalLoop=1;jettySize=auto;html=1;exitX=0;exitY=0;exitDx=30;exitDy=0;exitPerimeter=0;" edge="1" parent="1" source="NXqMpHXRE2b2beQ41x6s-24" target="NXqMpHXRE2b2beQ41x6s-18">
          <mxGeometry relative="1" as="geometry" />
        </mxCell>
        <mxCell id="NXqMpHXRE2b2beQ41x6s-24" value="&lt;font style=&quot;font-size: 18px;&quot;&gt;RESPUESTA&lt;/font&gt;" style="verticalAlign=top;align=left;spacingTop=8;spacingLeft=2;spacingRight=12;shape=cube;size=10;direction=south;fontStyle=4;html=1;whiteSpace=wrap;" vertex="1" parent="1">
          <mxGeometry x="510" y="290" width="140" height="70" as="geometry" />
        </mxCell>
        <mxCell id="NXqMpHXRE2b2beQ41x6s-28" value="&lt;span style=&quot;font-size: 18px; text-align: left; text-decoration-line: underline;&quot;&gt;BASE DE DATOS MONGODB ATLAS&lt;/span&gt;" style="shape=cylinder3;whiteSpace=wrap;html=1;boundedLbl=1;backgroundOutline=1;size=15;" vertex="1" parent="1">
          <mxGeometry x="90" y="500" width="110" height="150" as="geometry" />
        </mxCell>
        <mxCell id="NXqMpHXRE2b2beQ41x6s-29" style="edgeStyle=orthogonalEdgeStyle;rounded=0;orthogonalLoop=1;jettySize=auto;html=1;entryX=1.033;entryY=0.648;entryDx=0;entryDy=0;entryPerimeter=0;" edge="1" parent="1" source="NXqMpHXRE2b2beQ41x6s-28" target="NXqMpHXRE2b2beQ41x6s-7">
          <mxGeometry relative="1" as="geometry" />
        </mxCell>
        <mxCell id="NXqMpHXRE2b2beQ41x6s-31" style="edgeStyle=orthogonalEdgeStyle;rounded=0;orthogonalLoop=1;jettySize=auto;html=1;" edge="1" parent="1" source="NXqMpHXRE2b2beQ41x6s-30" target="NXqMpHXRE2b2beQ41x6s-28">
          <mxGeometry relative="1" as="geometry" />
        </mxCell>
        <mxCell id="NXqMpHXRE2b2beQ41x6s-30" value="Cloud" style="html=1;whiteSpace=wrap;strokeColor=none;fillColor=#0079D6;labelPosition=center;verticalLabelPosition=middle;verticalAlign=top;align=center;fontSize=12;outlineConnect=0;spacingTop=-6;fontColor=#FFFFFF;sketch=0;shape=mxgraph.sitemap.cloud;" vertex="1" parent="1">
          <mxGeometry x="70" y="690" width="150" height="100" as="geometry" />
        </mxCell>
        <mxCell id="NXqMpHXRE2b2beQ41x6s-33" value="" style="sketch=0;aspect=fixed;pointerEvents=1;shadow=0;dashed=0;html=1;strokeColor=none;labelPosition=center;verticalLabelPosition=bottom;verticalAlign=top;align=center;fillColor=#00188D;shape=mxgraph.azure.computer" vertex="1" parent="1">
          <mxGeometry x="-40" y="80" width="50" height="45" as="geometry" />
        </mxCell>
        <mxCell id="NXqMpHXRE2b2beQ41x6s-34" value="" style="verticalAlign=top;align=left;spacingTop=8;spacingLeft=2;spacingRight=12;shape=cube;size=10;direction=south;fontStyle=4;html=1;whiteSpace=wrap;" vertex="1" parent="1">
          <mxGeometry x="-550" y="190" width="460" height="260" as="geometry" />
        </mxCell>
        <mxCell id="NXqMpHXRE2b2beQ41x6s-35" value="FRONTEND" style="text;strokeColor=none;align=center;fillColor=none;html=1;verticalAlign=middle;whiteSpace=wrap;rounded=0;" vertex="1" parent="1">
          <mxGeometry x="-550" y="200" width="180" height="40" as="geometry" />
        </mxCell>
        <mxCell id="NXqMpHXRE2b2beQ41x6s-36" value="INDEX" style="verticalAlign=top;align=left;spacingTop=8;spacingLeft=2;spacingRight=12;shape=cube;size=10;direction=south;fontStyle=4;html=1;whiteSpace=wrap;" vertex="1" parent="1">
          <mxGeometry x="-520" y="240" width="410" height="200" as="geometry" />
        </mxCell>
        <mxCell id="NXqMpHXRE2b2beQ41x6s-37" value="MVC" style="verticalAlign=top;align=left;spacingTop=8;spacingLeft=2;spacingRight=12;shape=cube;size=10;direction=south;fontStyle=4;html=1;whiteSpace=wrap;" vertex="1" parent="1">
          <mxGeometry x="-480" y="280" width="350" height="140" as="geometry" />
        </mxCell>
        <mxCell id="NXqMpHXRE2b2beQ41x6s-38" value="&lt;font style=&quot;font-size: 24px;&quot;&gt;Modelo&lt;/font&gt;" style="verticalAlign=top;align=left;spacingTop=8;spacingLeft=2;spacingRight=12;shape=cube;size=10;direction=south;fontStyle=4;html=1;whiteSpace=wrap;" vertex="1" parent="1">
          <mxGeometry x="-430" y="325" width="100" height="50" as="geometry" />
        </mxCell>
        <mxCell id="NXqMpHXRE2b2beQ41x6s-39" value="&lt;font style=&quot;font-size: 24px;&quot;&gt;Controlador&lt;/font&gt;" style="verticalAlign=top;align=left;spacingTop=8;spacingLeft=2;spacingRight=12;shape=cube;size=10;direction=south;fontStyle=4;html=1;whiteSpace=wrap;" vertex="1" parent="1">
          <mxGeometry x="-310" y="325" width="140" height="50" as="geometry" />
        </mxCell>
      </root>
    </mxGraphModel>
  </diagram>
</mxfile>
